<svg xmlns="http://www.w3.org/2000/svg" viewBox="32.18 15.00 435.64 260.00">
  <!-- Generated from LingDong-/fishdraw, MIT License, seed: "GaN quiet koi". Copyright (c) 2021 Lingdong Huang. -->
  <path d="M 172.90 104.50 179.14 99.59 185.44 95.41 198.03 87.85 204.33 84.88 216.93 79.64 223.23 77.65 229.53 76.43 248.43 76.17 254.73 75.68 261.03 75.54 267.33 77.47 273.62 80.67 286.22 87.42 292.52 91.91 298.82 97.16 324.02 118.85 336.62 128.51
M 336.62 177.06 311.42 198.46 305.12 203.05 298.82 207.34 292.52 211.98 286.22 216.01 279.92 219.33 273.62 222.32 267.33 225.02 261.03 227.51 254.73 228.95 248.43 229.70 235.83 229.78 229.53 230.10 223.23 229.18 204.33 221.22 191.74 213.54 185.44 209.00 179.08 203.62
M 332.85 142.30 326.10 141.91 319.01 141.29 311.71 140.25 308.09 139.59 300.97 137.82 279.22 131.48 274.22 130.34
M 271.06 129.64 263.52 128.12 258.88 127.80
M 255.68 127.98 252.44 128.50
M 249.17 129.07 244.16 129.86 238.99 130.07
M 235.55 130.25 220.41 131.14 213.63 131.27 211.94 131.45
M 208.59 131.88 205.28 132.45
M 201.99 133.07 198.69 133.51
M 195.37 133.80 188.53 134.29
M 181.71 196.05 186.48 202.08
M 186.81 196.13 189.22 199.29
M 183.42 185.13 189.50 193.08
M 184.19 179.44 192.04 189.84
M 198.98 199.23 204.32 206.39 207.89 210.70
M 210.35 213.50 214.45 217.88
M 186.60 175.86 196.92 189.76
M 199.30 192.97 201.53 196.03
M 208.13 204.93 210.51 207.90
M 212.93 210.80 215.34 213.57
M 192.72 177.47 196.72 182.93
M 203.91 192.67 206.14 195.74
M 210.68 201.85 215.46 207.93
M 217.84 210.86 220.20 213.68
M 222.52 216.37 224.84 218.90
M 199.30 179.81 201.51 182.84
M 203.91 186.09 206.22 189.24
M 208.50 192.36 210.81 195.49
M 183.12 149.39 185.42 152.65
M 206.89 183.58 213.23 192.18
M 215.62 195.41 218.03 198.72
M 232.40 217.06 234.97 219.57
M 183.28 143.27 189.14 151.25
M 225.24 202.68 227.64 205.99
M 182.22 135.54 187.56 142.54 193.96 151.32
M 220.82 189.62 222.93 192.84
M 225.32 196.49 227.74 200.08
M 230.21 203.51 232.74 206.74
M 235.33 209.77 237.98 212.64
M 179.92 125.72 194.14 144.95
M 196.89 148.79 198.37 150.91
M 227.82 193.77 230.30 197.49
M 243.56 213.37 246.21 216.20
M 177.41 115.70 197.62 143.23 201.98 149.73
M 231.14 192.00 234.24 196.69 236.94 200.24 243.83 208.23
M 173.20 105.11 175.94 107.92 181.07 114.11 198.30 137.70
M 200.96 141.39 205.38 148.23
M 236.72 193.28 238.44 195.69
M 244.06 202.60 246.84 205.81
M 254.66 215.01 257.13 217.74
M 175.46 102.49 178.23 105.14 180.92 108.02 185.98 114.37 196.37 128.83 204.36 139.39 207.98 145.12
M 242.89 194.71 244.21 196.35
M 178.12 100.39 180.46 102.51 183.19 105.28 185.80 108.25 188.27 111.38 194.46 119.92
M 197.07 123.49 206.52 135.55 209.09 139.21 212.65 145.07
M 180.87 98.44 185.38 102.63 188.00 105.49 190.50 108.52 200.43 121.76 211.36 135.36 213.92 139.12 217.72 145.18
M 252.80 193.28 258.51 200.47
M 183.72 96.55 187.53 100.04 192.63 105.71 205.19 121.71 213.49 131.75 216.26 135.33 220.15 141.07
M 256.59 191.31 261.23 197.33
M 263.74 200.73 266.15 204.02
M 186.63 94.69 189.68 97.46 192.23 100.10 197.24 105.92 218.38 131.80 222.49 137.30
M 225.23 141.04 227.04 143.41
M 261.53 191.19 263.73 194.08
M 268.89 200.91 271.29 204.06
M 189.64 92.88 191.86 94.90 194.34 97.46 204.54 109.10 217.66 124.97 231.69 142.66
M 268.88 194.29 271.53 197.73
M 276.36 203.91 278.58 206.56
M 280.70 208.95 282.25 210.66
M 192.64 91.08 196.47 94.86 209.39 109.16 219.83 121.65 229.45 133.80
M 232.36 137.39 236.18 141.94
M 274.02 194.37 279.03 200.78
M 281.28 203.55 283.40 206.08
M 195.63 89.29 198.66 92.33 206.06 100.48 214.31 109.17 218.20 113.69
M 220.79 116.79 228.72 126.68
M 231.48 130.17 240.53 141.23
M 275.09 189.13 276.38 190.80
M 281.55 197.43 283.86 200.35
M 198.68 87.54 208.15 97.75 219.29 109.12 227.02 118.22 239.28 133.57
M 242.23 137.26 245.10 140.98
M 279.27 187.86 281.35 190.54
M 201.94 86.01 210.38 95.05 218.87 103.27 224.31 108.99 231.92 117.89 241.31 129.76
M 244.23 133.53 248.54 139.22 252.46 144.81
M 205.30 84.46 212.84 92.41 224.14 103.11 229.30 108.71 235.52 115.88
M 238.00 118.96 246.23 129.69
M 249.16 133.58 257.20 144.90
M 259.79 148.62 260.50 149.63
M 290.90 189.69 296.07 196.17
M 208.78 82.96 215.57 89.84 226.76 100.14 229.35 102.83 236.60 110.93 238.95 113.70 243.88 120.02 255.45 135.59 259.40 141.22
M 261.95 144.92 267.85 153.25
M 270.09 156.30 273.12 160.33
M 212.25 81.51 218.49 87.38 226.80 94.71 231.96 99.82 241.09 110.11 247.11 117.79
M 252.89 125.59 261.41 137.41
M 269.25 148.67 276.40 158.44 280.96 164.29
M 283.96 168.11 289.49 175.45
M 292.11 178.99 294.83 182.48
M 300.53 189.28 303.29 192.58
M 215.75 80.11 226.88 89.70 232.12 94.48 236.77 99.39 244.31 107.96
M 246.53 110.69 256.09 123.46 268.37 140.95
M 273.90 148.67 279.65 156.52
M 296.67 178.97 299.50 182.41
M 305.34 189.14 308.04 192.39
M 219.35 78.88 227.04 85.08 234.63 91.91 239.06 96.50 247.53 105.90 252.18 111.72 257.77 119.30 270.01 136.95
M 272.77 140.81 275.63 144.73
M 284.44 156.49 288.97 162.31 293.27 168.14
M 307.22 185.63 310.01 188.88
M 222.88 77.76 227.25 80.97 233.48 86.22
M 235.83 88.41 239.14 91.64 247.47 100.42 253.21 106.93
M 255.66 110.05 262.39 119.37 270.20 131.06 272.94 134.90 283.33 148.64
M 289.37 156.34 293.83 162.22 299.32 170.07 303.36 175.41
M 309.10 182.09 311.92 185.34
M 226.62 76.99 232.36 81.13 237.01 85.17 243.27 91.27 253.14 101.34
M 258.03 107.01 260.53 110.27
M 265.68 117.62 273.24 129.14
M 276.04 133.03 280.53 138.92 294.37 156.13
M 297.28 160.09 300.08 164.09
M 305.54 171.73 308.32 175.21
M 230.35 76.41 234.82 79.47 237.06 81.31 244.28 87.98
M 246.33 89.93 253.05 96.36
M 255.50 98.79 259.23 102.78 261.74 105.76 264.22 108.97 267.93 114.27
M 270.34 117.95 276.45 127.43 279.29 131.29 287.07 140.86
M 299.33 155.93 302.20 159.91
M 305.00 163.90 307.80 167.78
M 313.39 174.93 316.15 178.29
M 234.55 76.30 237.14 78.06 239.25 79.74 249.51 88.70 256.65 95.19 261.69 100.31 264.22 103.17 266.72 106.25 270.35 111.23
M 272.68 114.73 274.98 118.34
M 277.37 122.04 281.30 127.70 284.27 131.51 292.15 140.81
M 301.33 151.85 304.30 155.73
M 307.23 159.69 312.92 167.43
M 238.37 76.28 241.36 78.45 254.17 88.65 259.12 93.01 264.19 97.99 269.20 103.67 271.61 106.77 283.55 124.18 287.88 129.79
M 290.96 133.49 294.10 137.12
M 300.25 144.25 303.31 147.89
M 312.41 159.37 315.26 163.23
M 320.63 170.73 323.18 174.37
M 241.78 76.29 256.66 86.76 261.69 90.94 266.74 95.75 271.67 101.19 274.03 104.13 287.30 122.52
M 290.07 126.17 294.51 131.64 299.10 136.97
M 302.16 140.47 310.07 149.45 314.68 155.12
M 322.82 166.58 325.27 170.36
M 244.83 76.24 256.73 83.38 259.26 85.05 264.35 88.95 269.36 93.57 274.17 98.75 278.82 104.45 292.39 122.54
M 301.00 133.20 304.02 136.68
M 307.13 140.16 315.31 149.08 316.84 150.93
M 322.46 158.43 324.97 162.24
M 332.04 173.50 333.58 175.99
M 247.91 76.18 259.39 81.92 261.99 83.45 265.85 86.11
M 268.37 88.11 272.06 91.41 276.77 96.31 281.43 101.71 284.97 106.12
M 287.37 109.17 300.13 125.88
M 308.88 136.28 312.10 139.73
M 315.45 143.23 318.77 146.79
M 334.06 169.12 335.91 172.15
M 250.97 75.97 256.95 78.23 262.20 80.55 267.47 83.50 270.01 85.25 272.47 87.17 277.19 91.50 281.84 96.32 285.33 100.32
M 287.67 103.16 292.44 109.10
M 294.87 112.17 297.33 115.36
M 304.99 125.54 310.66 132.36
M 313.75 135.78 317.05 139.22
M 320.42 142.69 323.64 146.20
M 326.53 149.75 329.11 153.35
M 254.38 75.70 262.41 78.18 267.84 80.49 270.46 81.89 275.40 85.24 281.26 90.27
M 283.58 92.52 289.32 98.78 297.52 108.90
M 299.87 111.96 302.23 115.17
M 304.63 118.48 308.45 123.47 312.62 128.44
M 318.68 135.21 325.26 142.09
M 259.07 75.58 261.23 76.05
M 264.00 76.74 268.78 78.28
M 277.13 82.52 280.78 85.06 285.45 88.88 287.74 91.03 292.25 95.87 299.06 104.22 310.67 119.83 317.62 127.88
M 320.57 131.24 323.68 134.67
M 298.54 96.92 301.87 101.15 310.58 113.22 314.35 117.84
M 317.06 120.91 322.75 127.35
M 312.40 108.88 314.36 111.37
M 316.87 114.32 325.11 123.60
M 331.48 124.65 335.55 129.90
M 183.98 96.38 178.68 102.49 174.50 107.64
M 194.45 89.99 187.86 97.47 176.21 111.80
M 203.89 85.08 199.04 89.88 194.69 94.86 177.62 116.46
M 214.26 80.71 211.37 82.82 208.66 85.05 206.06 87.41 201.37 92.35 197.17 97.50 178.96 121.47
M 225.43 77.22 222.27 79.01 216.53 82.83 210.90 87.40 207.16 91.13
M 204.88 93.69 202.75 96.30
M 200.71 98.97 198.70 101.68
M 196.67 104.45 192.47 110.13
M 190.32 113.07 184.81 121.00 180.18 126.99
M 232.60 76.35 227.52 79.17 221.97 82.88 216.13 87.39 213.35 89.86 210.79 92.41 208.48 95.05 206.34 97.73 199.24 107.47
M 197.09 110.36 193.84 114.85 190.76 119.73
M 188.66 123.08 185.21 128.04 181.49 132.72
M 238.21 76.27 234.95 77.91 230.06 81.05 224.64 85.07 218.84 89.81 216.05 92.37 213.48 95.04 211.17 97.76 206.06 104.74
M 203.99 107.61 199.60 113.53
M 197.45 116.66 193.41 123.40
M 191.38 126.85 188.05 131.86 182.77 139.10
M 243.77 76.26 241.44 77.18 239.37 78.26 234.97 81.22 227.37 87.34 221.71 92.27 218.94 94.95 216.37 97.71 214.05 100.51 204.38 113.65
M 198.07 123.51 193.05 132.27 187.50 140.71
M 185.27 144.07 183.41 146.89
M 250.72 75.99 247.55 76.89 245.48 77.68 243.46 78.67 241.45 79.91 239.40 81.41 235.01 85.16 227.38 92.13 221.89 97.57 219.34 100.42 214.82 106.22 205.89 118.41 203.80 121.73 193.71 139.42 188.28 148.10
M 185.99 151.43 185.09 152.69
M 257.71 75.61 254.42 76.43 249.71 78.07 247.55 79.05 245.49 80.21 243.48 81.59 239.45 85.15 226.10 98.79
M 223.52 101.71 219.89 106.16 214.15 113.71
M 211.87 116.83 209.68 120.04
M 203.57 130.38 199.55 137.68
M 193.41 148.60 191.63 151.36
M 261.96 75.82 256.99 77.27 254.43 78.22 249.73 80.43 247.58 81.75 245.53 83.28 243.54 85.07 236.24 93.05
M 233.88 95.70 227.50 102.94 220.27 112.12 215.67 118.41 210.38 126.67
M 204.30 137.52 202.25 141.35
M 200.26 145.14 197.04 151.05
M 264.44 76.59 259.67 78.22 256.98 79.33 252.04 81.85 249.77 83.32 247.64 84.98 245.60 86.90 242.63 90.24
M 240.60 92.69 228.85 107.25
M 226.44 110.40 221.75 116.77
M 219.51 120.02 215.28 126.63
M 211.20 133.57 206.89 141.22
M 202.79 148.96 202.53 149.47
M 267.19 77.43 259.64 80.56 254.48 83.35 252.10 84.95 249.85 86.75 247.73 88.78 245.70 91.05 241.69 96.17 232.58 108.42 225.53 118.28 219.12 128.37 207.90 147.60
M 269.53 78.59 262.33 81.93 257.02 85.00 254.55 86.73 252.19 88.65 248.90 91.95
M 246.83 94.37 241.72 101.34 230.45 118.01 226.02 124.98 216.47 141.10
M 214.03 145.06 212.75 147.15
M 272.04 79.86 265.01 83.48 259.60 86.83 254.65 90.73 252.31 92.91 250.10 95.26 245.94 100.63 241.78 106.97 230.87 124.83 225.80 133.76
M 223.74 137.34 219.26 144.67
M 196.53 178.81 193.83 182.96
M 274.65 81.21 267.64 85.22 262.19 88.86 257.17 92.94 252.50 97.55 250.30 100.14 246.08 106.14 244.00 109.51 238.93 118.80
M 236.82 122.59 227.67 139.20 224.94 143.75
M 277.33 82.63 270.20 87.14 267.44 89.08 262.21 93.16 257.34 97.58 252.70 102.65 250.48 105.57 248.32 108.77 246.31 112.34 240.58 124.10 230.64 142.83
M 201.19 186.24 198.95 189.69
M 196.65 193.09 194.19 196.33
M 280.07 84.09 275.51 87.18 269.98 91.33 262.33 97.85 257.52 102.70 255.18 105.42 252.86 108.41 251.80 110.11
M 249.81 113.71 243.44 127.78 236.16 141.94
M 282.85 85.59 275.13 91.49 267.38 98.24 262.49 103.02 257.67 108.47 255.42 111.68 253.47 115.35 249.19 125.63
M 247.38 129.66 241.61 140.92
M 210.93 185.39 205.92 192.53
M 198.52 202.14 195.81 204.97
M 285.68 87.12 280.30 91.44 272.37 98.63 265.06 106.07 262.61 108.82 260.27 111.87 258.20 115.38 256.42 119.30 253.12 127.66 251.34 131.68 246.43 141.00
M 214.24 187.24 212.94 188.97
M 210.56 192.26 208.22 195.60
M 200.66 204.94 197.97 207.69
M 288.30 88.90 282.68 93.77 277.26 98.89 269.99 106.60 265.18 112.29 262.97 115.60 261.05 119.34 256.15 131.70 254.27 135.58 249.36 144.35
M 217.88 188.94 217.81 189.02
M 290.94 90.79 282.28 98.96 274.76 107.07 270.04 112.80 267.73 115.97 265.63 119.48 264.73 121.41
M 261.49 129.53 259.86 133.59
M 258.01 137.47 255.94 141.20
M 253.80 144.84 252.85 146.44
M 215.40 198.64 212.96 201.81
M 293.59 92.80 287.41 98.85 282.05 104.57 277.11 110.29 274.76 113.27 270.19 119.72 268.19 123.35 265.72 129.31
M 264.20 133.36 262.54 137.35
M 260.64 141.20 256.65 148.11
M 227.00 191.04 225.06 193.22
M 222.65 196.04 220.26 198.92
M 217.86 201.89 215.42 204.92
M 207.88 213.41 206.38 214.88
M 296.20 94.98 289.79 101.63 281.95 110.58 277.09 116.78 274.78 120.06 272.63 123.51 271.68 125.35
M 269.92 129.14 266.04 139.11 264.23 143.01 260.59 149.68
M 231.96 192.19 230.04 194.22
M 227.53 196.94 222.69 202.34
M 298.89 97.22 294.94 101.42 288.23 109.16
M 285.67 112.28 279.53 120.41 277.26 123.82 275.20 127.35 273.43 131.04 268.70 142.87 264.43 151.53
M 235.32 195.22 230.06 200.54
M 227.56 203.08 225.11 205.66
M 301.62 99.56 297.31 104.30 292.00 110.66 286.94 117.24 282.15 124.11 279.98 127.63 278.05 131.23 276.35 134.95 270.59 148.65
M 268.75 152.51 268.26 153.50
M 240.94 196.01 232.66 203.94
M 304.37 101.90 302.32 104.13 297.08 110.47 294.51 113.79 289.56 120.76 284.99 127.87 282.97 131.46 281.13 135.12 278.57 140.83
M 276.92 144.74 274.39 150.62 271.66 156.41
M 248.89 194.29 246.78 196.57
M 243.85 199.52 238.10 204.74
M 307.06 104.23 302.00 110.30 297.06 117.05 292.33 124.35 287.11 133.45
M 285.23 137.12 282.53 142.80 273.96 161.95
M 257.22 191.22 254.05 195.35 252.63 196.92
M 246.76 202.84 243.81 205.44
M 227.47 219.07 225.24 220.94
M 309.74 106.56 306.75 110.19 304.33 113.45 301.96 116.86 297.37 124.19 293.20 131.66 286.60 144.70
M 284.77 148.62 279.46 160.42
M 277.80 164.29 277.35 165.31
M 258.24 197.19 255.48 200.31
M 249.58 206.07 243.68 210.84
M 237.96 215.13 235.19 217.29
M 312.45 108.92 309.07 113.30 306.73 116.69 302.28 123.92 298.23 131.52 289.76 148.45
M 285.99 156.44 280.90 168.15
M 260.90 200.59 258.14 203.66
M 315.24 111.35 311.54 116.42 309.26 119.93 305.05 127.37 291.92 154.23 283.12 173.44
M 274.49 189.11 272.28 192.64 269.90 196.05 266.06 200.83
M 263.38 203.94 259.22 208.44 257.77 209.80
M 318.14 113.87 314.19 119.52 309.89 126.91 293.99 160.18
M 292.09 164.22 287.58 173.67 284.91 178.81
M 280.85 186.58 277.37 192.59 273.77 197.75
M 271.20 200.96 268.52 204.09
M 260.19 212.86 257.38 215.31
M 321.17 116.44 317.00 122.62 312.79 130.26 305.76 145.85 295.89 166.20 291.17 175.47
M 289.29 179.05 285.42 186.54
M 273.64 204.04 270.90 207.10
M 262.57 215.63 261.20 216.89 257.11 220.00
M 324.30 119.07 319.92 125.80 317.76 129.68 315.84 133.65 312.63 141.57 309.97 147.52
M 307.99 151.55 299.66 168.10
M 297.65 171.92 292.01 182.56
M 285.93 193.61 283.65 197.22
M 281.23 200.62 278.66 203.79
M 327.57 121.63 325.12 125.35 322.87 129.15 320.84 133.08 319.14 137.06 316.07 145.10 314.27 149.16 305.61 165.92 298.43 178.97
M 296.64 182.47 294.83 186.01
M 286.01 200.11 283.49 203.33
M 280.88 206.35 278.20 209.25
M 330.92 124.23 328.02 128.79 325.90 132.62 324.11 136.51 319.39 148.69 317.41 152.87 311.86 163.50
M 305.19 175.34 303.18 178.88
M 301.35 182.38 299.58 185.88
M 297.70 189.38 294.51 194.62 290.83 199.67
M 334.33 126.79 330.98 132.31 329.06 136.06 325.05 146.02
M 323.30 150.21 320.30 156.62 315.86 165.22 308.10 178.69
M 304.38 185.75 302.53 189.23
M 300.50 192.68 298.23 196.07
M 336.62 131.18 334.00 135.75 332.19 139.45 327.02 151.66 321.90 162.59
M 319.72 166.85 316.39 172.94 313.11 178.44
M 303.12 195.90 300.65 199.16
M 336.62 139.82 335.14 142.80 326.52 162.02
M 324.44 166.40 321.29 172.60 315.90 181.73
M 336.62 148.79 328.92 165.82
M 326.90 170.17 324.88 174.24
M 318.46 184.96 316.38 188.38
M 336.62 157.63 330.30 171.77 327.29 177.82
M 336.62 166.63 335.62 168.86
M 333.65 173.24 331.72 177.25
M 190.27 92.10 191.74 91.61
M 201.58 85.86 196.28 61.24 197.12 61.02 204.49 84.81
M 213.41 80.64 209.50 43.08 210.35 42.97 216.41 79.85
M 225.79 76.76 229.94 26.21 230.80 26.27 228.89 76.55
M 238.69 75.98 249.62 27.02 250.46 27.19 241.78 76.29
M 251.61 75.37 268.86 20.00 269.68 20.24 254.73 75.68
M 264.61 76.24 296.45 25.80 297.18 26.25 267.44 77.53
M 276.40 81.64 308.55 50.28 309.17 50.88 278.92 83.47
M 287.71 87.96 310.87 70.76 311.41 71.43 289.97 90.09
M 297.96 95.87 298.82 97.16
M 192.31 91.27 194.35 85.46 195.24 82.44 195.95 79.39 196.46 76.31 196.89 70.05 196.81 63.70
M 197.86 63.43 201.43 60.39 204.58 57.05 205.91 55.20 207.08 53.24 208.11 51.17 209.89 46.84
M 210.96 46.69 215.79 44.12 218.10 42.70 220.29 41.14 222.36 39.43 226.11 35.55 229.53 31.27
M 230.61 31.33 234.55 32.57 236.53 33.02 238.52 33.29 240.51 33.35 244.51 32.89 248.53 31.92
M 249.59 32.13 253.88 31.70 255.96 31.33 257.98 30.78 259.93 30.05 263.62 28.04 267.13 25.54
M 268.17 25.84 273.53 28.04 278.99 29.73 281.78 30.28 284.61 30.64 287.47 30.82 293.26 30.85
M 294.19 31.41 295.68 36.80 297.63 41.95 298.87 44.40 300.29 46.75 301.87 49.02 305.34 53.41
M 306.11 54.17 305.56 58.38 305.45 60.47 305.52 62.53 305.79 64.57 306.92 68.56 308.55 72.48
M 309.23 73.33 305.85 78.06 302.93 83.01 301.74 85.61 300.74 88.29 299.90 91.05 298.52 96.71
M 199.67 61.93 203.08 58.77 204.58 57.05 205.91 55.20 207.08 53.24 209.03 49.03
M 202.94 69.29 205.15 67.23 206.13 66.11 207.76 63.64 209.02 60.90
M 213.40 45.43 218.10 42.70 220.29 41.14 222.36 39.43 224.29 37.56 227.84 33.43
M 214.75 51.24 218.63 48.99 222.14 46.29 223.74 44.75 226.67 41.35
M 216.11 57.06 219.16 55.28 221.93 53.15 223.19 51.94 225.49 49.26
M 217.46 62.87 220.74 60.83 222.63 59.13 224.32 57.17
M 232.58 31.99 236.53 33.02 238.52 33.29 240.51 33.35 242.50 33.21 246.52 32.44
M 232.75 38.23 236.15 39.11 237.85 39.34 241.28 39.28 244.73 38.62
M 232.91 44.47 235.76 45.21 237.19 45.40 240.06 45.35 242.95 44.80
M 233.08 50.71 236.52 51.46 238.84 51.42 241.16 50.97
M 233.25 56.95 235.86 57.52 237.61 57.49 239.38 57.15
M 251.74 31.95 255.96 31.33 257.98 30.78 259.93 30.05 261.81 29.13 265.39 26.82
M 251.03 38.12 254.66 37.59 256.40 37.12 259.69 35.70 262.77 33.71
M 250.32 44.29 253.35 43.85 256.21 42.93 257.56 42.26 260.14 40.60
M 249.61 50.47 253.22 49.79 255.44 48.83 257.52 47.49
M 248.89 56.64 250.75 56.37 252.50 55.81 254.90 54.39
M 270.85 26.97 276.24 28.97 278.99 29.73 281.78 30.28 284.61 30.64 290.36 30.87
M 269.52 32.74 274.29 34.51 276.72 35.17 281.68 35.98 286.76 36.18
M 268.20 38.51 272.34 40.04 276.58 41.05 278.75 41.32 283.16 41.50
M 266.88 44.28 270.39 45.58 273.99 46.43 275.82 46.66 279.56 46.81
M 265.56 50.05 269.90 51.52 272.90 52.01 275.97 52.13
M 264.24 55.82 267.63 56.97 269.97 57.35 272.37 57.44
M 294.90 34.12 296.58 39.42 297.63 41.95 298.87 44.40 300.29 46.75 303.57 51.23
M 291.66 40.53 293.10 45.08 294.01 47.26 296.29 51.39 299.12 55.25
M 288.41 46.93 289.62 50.75 290.38 52.57 292.29 56.03 294.66 59.26
M 285.17 53.34 286.14 56.41 287.47 59.30 290.20 63.27
M 281.92 59.75 282.66 62.08 283.67 64.27 285.74 67.28
M 305.80 56.28 305.45 60.47 305.52 62.53 305.79 64.57 306.26 66.57 307.70 70.52
M 300.50 63.20 300.23 66.41 300.29 68.00 300.86 71.09 301.96 74.12
M 295.20 70.13 295.02 72.36 295.20 74.54 296.22 77.72
M 183.02 153.09 183.71 152.86 186.05 152.58 189.12 151.25 192.40 151.39 194.97 151.27 200.58 150.55 202.15 149.64 207.04 147.48 210.16 147.90 213.12 147.04 218.79 144.75 242.53 140.91 248.16 143.66 253.14 146.62 255.84 147.94 257.57 148.29 268.22 153.44 269.83 155.70 271.51 159.54 281.36 169.30 282.78 171.49 283.12 173.47 284.86 178.47 285.25 181.13 284.40 183.86 282.49 185.52 280.31 186.92 278.42 188.64 276.11 189.17 273.17 189.06 269.89 188.62 267.30 188.87 265.75 190.15 263.80 191.05 261.13 191.21 258.10 191.10 255.29 191.50 253.63 193.05 248.52 194.38 245.75 195.37 216.93 188.72 211.65 185.68 207.74 184.07 205.66 182.86 203.20 180.36 198.42 179.66 195.32 178.26 192.84 177.54 190.60 176.36 189.13 174.58 187.31 173.13 185.10 171.92
M 183.43 154.49 186.21 153.88 194.43 152.61 197.77 152.59 200.46 152.05 205.02 150.78 207.93 150.32 210.41 150.35 214.88 149.67 217.17 148.81 220.44 148.58 225.52 145.60 228.00 144.62 231.07 144.37 233.59 143.04 236.79 142.27 238.80 141.34
M 183.25 156.61 191.56 155.19 197.31 155.30 202.92 153.93 204.97 153.65 206.95 153.78 212.60 152.88 219.19 151.59 221.60 151.29 225.43 149.45 230.84 148.45 240.48 149.17 243.47 148.63
M 183.79 158.63 186.72 158.06 192.02 157.44 198.00 157.46 202.88 157.08 205.41 157.63 207.59 157.74 209.91 157.35 216.11 156.72 219.90 155.67 222.81 155.71 224.66 155.39
M 184.32 160.61 189.85 160.04 195.36 159.85 198.23 160.29 200.64 161.04 202.97 160.87 206.14 161.37 208.22 162.05 210.53 161.81 212.85 161.81 219.97 159.86 222.70 159.69 225.05 159.64 226.85 160.42 229.29 160.75 232.08 159.38 235.12 159.97 237.58 160.83 241.03 160.44 243.56 161.23
M 184.83 162.75 186.97 162.89 192.60 162.19 197.61 162.99 200.24 163.76 202.95 164.07 207.94 165.47 213.05 165.39 216.24 164.64 219.24 164.36 224.69 165.09 227.11 165.73 229.19 165.92 233.92 166.18 235.89 165.58 239.30 167.02 242.47 167.86 244.86 168.04 247.30 167.80 249.97 167.78 253.54 167.03 256.27 167.12 257.69 166.46 260.49 167.88 263.21 168.80 266.01 169.44
M 185.20 164.51 187.13 164.74 189.82 164.72 200.64 167.17 205.86 167.57 209.83 168.65 215.96 169.28 218.74 170.22 221.44 170.46 224.50 170.47 226.94 170.20 229.06 169.66 233.70 172.38 238.71 173.94 241.82 174.32
M 185.58 166.28 189.69 167.19 191.73 168.54 194.31 169.22 197.50 169.84 200.49 170.22 203.73 170.31 205.38 171.27 207.25 171.84 210.09 171.82 212.45 172.74 214.96 174.05 221.34 175.31 224.12 176.09 226.22 176.33 228.45 177.07 229.92 177.09
M 185.48 168.20 189.41 169.50 191.33 171.44 193.82 172.44 196.76 173.24 200.19 173.59 203.16 174.14 205.32 174.78 206.86 175.50 209.26 175.84 211.96 176.91 214.51 179.12 217.93 179.76
M 185.28 170.17 187.00 170.82 188.90 171.89 191.20 173.81 193.16 174.99 196.19 175.76 199.27 176.01 201.94 176.70 203.88 177.52 205.93 179.07 210.84 180.53 213.91 182.44 217.19 183.75
M 218.36 225.87 220.68 234.40 219.89 234.73 215.50 227.06
M 206.55 221.24 214.06 269.85 213.21 270.00 203.51 221.78
M 199.58 217.54 198.11 226.26 197.25 226.23 196.49 217.42
M 219.45 233.96 217.00 240.64 215.06 247.42 214.38 250.87 213.90 254.36 213.59 257.88 213.31 264.99
M 212.24 265.18 210.18 255.97 207.62 246.93 206.07 242.51 204.32 238.16 202.41 233.86 198.26 225.39
M 218.19 237.30 215.94 244.02 215.06 247.42 214.38 250.87 213.90 254.36 213.41 261.43
M 211.24 260.56 208.98 251.42 207.62 246.93 206.07 242.51 204.32 238.16 200.36 229.61
M 311.42 198.46 315.70 201.36 319.15 203.10 322.98 205.49 326.51 208.23 329.58 216.32 330.38 220.05 329.88 222.61 329.12 225.31 330.40 228.94 331.63 231.38 330.09 235.52 327.89 236.77 325.48 237.69 323.99 239.83 323.14 242.23 321.60 244.26 319.33 245.64 317.41 247.36 314.76 248.21 312.79 249.69 309.97 249.82 303.56 250.84 300.92 250.67 298.63 250.72 291.00 247.92 287.43 247.06 284.54 246.88 283.83 247.57 272.82 240.58 270.25 236.89 267.11 234.77 265.13 232.05 261.03 227.51
M 307.95 200.99 317.65 206.41 320.69 207.88 322.40 209.78 324.33 210.90
M 304.46 203.50 308.23 206.27 310.87 207.74 315.71 211.08 318.24 212.26 325.56 216.25 328.23 219.13
M 300.91 205.92 306.99 210.26 309.16 211.55 314.37 216.21
M 297.39 208.40 300.63 210.97 303.21 212.51 305.34 213.56 307.79 215.75 310.14 217.35 315.22 221.35 320.96 222.61
M 293.93 210.94 297.29 213.52 299.66 214.78 304.54 218.03 306.89 219.34 311.68 223.57 314.66 224.66 316.65 226.21 319.25 227.61 321.85 229.56 324.30 232.46
M 290.37 213.35 293.63 215.94 299.13 219.48 301.39 220.40 306.81 223.12
M 286.75 215.67 289.67 218.45 292.21 220.58 295.14 222.15 297.11 223.72 302.17 226.11 308.25 231.59 310.01 233.65 314.05 239.19 316.14 240.80 318.29 241.51 320.84 241.82
M 282.98 217.73 285.84 220.82 288.36 223.25 290.71 225.11 298.28 230.35 300.08 232.54 301.68 233.53
M 279.16 219.70 282.16 222.34 286.78 227.29 294.27 233.02 297.25 236.05 299.50 237.84 304.64 242.57
M 275.27 221.54 278.12 223.77 283.00 228.82 285.39 230.80 287.00 232.56 289.31 234.57 291.51 236.08 293.31 237.67 298.33 241.04
M 271.35 223.30 274.74 226.09 276.91 228.53 278.88 231.59 281.31 234.14 287.03 238.36 289.48 239.81 291.40 242.21 294.03 243.37
M 267.40 224.99 270.75 228.06 277.50 235.20 279.19 237.36
M 263.40 226.57 266.81 229.96 268.70 232.95 271.31 234.77 273.62 236.96 277.43 241.92
M 336.62 128.51 339.12 127.73 341.39 126.36 351.13 121.58 355.32 118.42 360.04 115.65 362.14 114.09 364.44 113.85 366.69 112.53 368.39 110.89 370.56 109.64 375.46 107.21 378.49 105.29 380.42 103.51 382.15 101.56 384.63 100.38 386.22 98.80 388.60 97.27 393.90 95.05 395.51 93.38 397.74 92.84 400.15 91.21 404.74 88.69 406.97 86.84 411.22 84.99 412.35 83.85 414.53 82.19 417.23 79.77 418.76 78.02 421.50 76.19 423.91 74.26 424.80 73.09 428.95 68.71 430.30 68.25 445.80 75.19 449.77 78.39 454.03 82.44 461.71 91.06 462.82 93.30 462.45 95.67 462.39 98.36 461.63 100.35 461.26 103.02 459.65 104.86 458.77 107.44 457.12 109.25 456.46 115.51 454.19 120.16 449.96 123.22 446.05 126.60 443.91 128.10 442.18 130.03 441.89 133.22 441.31 136.04 440.41 138.54 435.79 144.12 434.76 146.63 434.04 149.45 433.58 152.53 432.16 154.53 431.60 157.17 430.65 159.43 429.76 164.16 434.88 172.91 446.20 185.36 456.16 195.17 457.15 197.33 457.49 198.87 458.16 200.73 461.17 206.15 462.50 208.92 462.06 211.19 461.45 213.28 461.91 216.45 461.93 219.17 461.50 221.44 459.20 229.11 457.71 231.26 455.44 232.63 453.46 234.28 450.91 235.38 448.78 236.90 446.81 238.62 433.06 242.64 431.06 240.87 428.32 239.86 426.93 238.35 424.22 237.58 421.83 236.28 416.19 233.77 415.21 232.07 413.11 230.49 410.77 229.23 408.71 227.77 405.69 226.50 402.15 223.40 398.88 221.86 396.46 221.14 395.15 218.95 392.63 215.80 389.83 214.60 388.05 213.17 383.73 210.63 381.43 208.71 378.98 206.03 376.75 204.72 374.82 203.12 370.44 200.74 368.25 198.91 365.26 197.55 357.75 191.61 354.91 190.32 353.08 189.17 351.01 187.11 348.56 185.13 346.19 183.80 344.00 182.32 339.56 178.77 336.62 177.06
M 341.57 129.70 348.99 125.86 351.50 125.35 356.12 122.51 360.67 120.07 362.65 118.66 365.34 117.65 370.11 115.07 372.63 114.45 374.64 113.75 376.69 112.66 378.81 111.15 381.21 109.97 383.79 107.70 385.95 106.33 388.61 105.76 390.62 104.51 393.06 103.28 394.79 101.34 397.51 99.66 400.29 99.40 404.32 97.81 405.18 96.36 407.78 94.29 413.64 92.26 419.73 89.79 421.08 88.71 422.52 88.12 423.77 86.34 430.21 82.83 432.39 81.81
M 341.80 133.01 344.43 132.14 349.56 129.76 351.96 129.06 356.60 126.55 361.96 124.59 363.94 123.30 366.19 122.20 368.58 121.33 373.58 120.36 377.91 117.85 382.28 116.22 384.59 115.59 386.94 113.11 390.69 111.86 395.36 109.84 396.96 108.57 399.09 107.88 401.40 106.31 404.29 105.22
M 342.04 136.19 347.38 134.89 349.81 134.02 352.22 132.89 354.91 132.14 357.47 131.01 361.96 129.88 367.04 127.87 369.72 126.48 372.57 125.52 374.77 124.28 379.74 123.94 384.16 122.87 386.85 121.26 389.82 119.11 393.25 117.70 395.08 116.78 397.12 116.81 399.23 117.10 401.13 116.01 408.92 112.79 411.02 111.76 413.83 109.87 417.43 108.44 419.69 107.16
M 336.62 140.24 339.57 140.06 342.33 139.44 344.96 139.11 347.43 138.50 349.97 138.12 352.33 137.20 357.84 135.65 362.79 133.89 365.55 133.33 370.85 131.25 373.57 130.42 376.23 130.05 379.91 128.47 382.60 127.66 384.92 127.49 387.45 127.65 393.76 125.10 399.77 124.38 402.70 123.65 405.37 121.49 408.10 120.38 410.32 120.23 413.46 119.45 417.18 118.89 420.40 117.90 425.11 114.10 431.84 112.13 438.00 112.48 439.27 111.26 441.26 109.81 444.66 110.16 447.28 109.03
M 336.62 143.17 339.72 142.97 350.28 141.50 352.94 140.68 358.07 139.96 360.09 138.83 368.68 136.50 371.52 136.36 374.02 136.73 376.48 135.79 379.12 135.25 381.64 135.33 386.73 133.58 388.73 133.60 391.21 133.86 394.03 133.45 395.98 132.84 398.84 131.39
M 344.67 146.07 347.46 145.85 350.22 145.40 361.38 143.33 363.21 142.65 365.80 142.31 372.54 142.33 375.61 141.43 380.36 141.81 383.05 141.16 385.94 141.20 387.68 139.78 389.60 139.76 391.40 140.01 393.62 139.41 396.63 139.44 399.20 140.46 402.17 139.59 405.44 138.05 407.05 136.31 413.08 135.11 415.91 135.99 417.84 135.61 420.51 135.82 423.49 134.90 427.10 135.00 429.94 134.66 432.64 134.93 435.57 134.84 438.94 134.40
M 339.88 149.35 342.68 149.70 345.00 149.81 347.53 149.71 350.18 149.48 359.73 147.84 361.95 148.02 363.95 147.77 366.29 147.84 369.76 147.14 376.11 146.70 378.61 146.76 380.79 147.52 383.49 148.23 386.01 147.43 389.20 145.97 391.83 145.04 394.35 145.24 396.33 145.75 399.10 147.13 402.91 146.62 407.17 145.23
M 339.83 152.61 345.26 153.39 350.66 153.15 356.68 152.13 362.02 152.53 364.09 152.97 366.81 153.16 369.60 152.59 374.29 152.70 377.64 153.16 380.28 153.92 382.92 153.74 385.34 154.08 391.14 152.67 394.04 152.60 396.47 152.19 398.67 152.56 404.08 152.53 407.35 152.78 411.08 152.20 416.80 153.95
M 342.74 156.25 347.76 157.16 353.79 156.88 362.19 157.36 364.52 157.68 367.03 157.50 369.32 157.99 371.48 158.13 373.99 157.99 377.55 159.32 380.26 160.00 382.47 159.66 385.19 160.00 387.66 159.33 395.54 158.78 398.46 160.58
M 345.03 159.67 347.65 159.84 356.48 161.64 359.09 162.00 362.03 162.04 364.55 161.59 366.93 161.76 369.20 163.18 371.35 163.90 377.02 165.28 379.57 165.35 381.48 165.01 387.95 165.94 389.93 165.49 392.53 166.05 395.68 167.02 398.73 168.25 406.65 168.15 408.73 167.16 411.59 168.17 414.77 169.64 417.79 169.41 420.72 169.74
M 345.05 162.89 347.88 163.35 350.28 164.34 353.18 165.23 356.38 165.69 359.12 166.36 361.92 166.67 363.95 167.61 368.31 168.44 373.49 170.14 376.81 170.61 383.41 169.85 386.36 170.26 388.65 171.19 390.94 172.82 393.26 173.42 395.32 174.49 399.91 173.58 402.74 173.42 405.03 174.37 408.33 174.65 410.91 175.28 413.42 177.10 416.75 178.69
M 339.87 164.84 342.34 165.64 347.49 166.94 350.07 168.20 353.07 169.39 356.02 169.91 358.39 170.87 360.50 171.07 362.97 172.30 365.49 173.12 367.83 173.43 370.36 173.99 372.92 175.26 375.96 175.94 379.11 176.07 381.71 176.62 389.08 178.91 391.36 179.45 397.44 180.36 400.25 181.58 402.75 182.27 406.53 181.82 412.80 183.84 415.21 185.62 418.33 185.85 420.87 186.63 423.36 188.88 425.85 189.66 429.02 190.06 430.96 190.54
M 336.62 166.61 342.02 168.79 347.15 170.49 355.46 174.23 357.65 175.01 359.94 175.52 362.59 176.74 370.14 179.17 372.87 179.83 375.60 180.21 377.70 181.32 380.76 182.37 383.53 183.62 385.57 184.07 387.93 184.86 389.91 186.44 392.34 187.88 398.08 187.65 400.97 188.23 402.70 189.05 409.12 190.72 411.64 192.10 413.32 192.74 415.88 194.16 418.67 196.91 421.21 197.41 423.52 197.08
M 344.41 173.18 347.25 174.25 349.82 175.58 354.64 177.69 356.94 178.47 362.08 181.80 365.42 182.84 367.43 183.79 369.28 184.23 371.94 184.53 374.71 185.73 377.58 186.26 379.82 187.17 381.74 188.75 387.27 191.29 391.12 193.79 393.67 194.27 396.35 195.01 404.17 199.60 408.87 200.77 411.26 202.31 413.93 204.58 417.09 205.48 419.61 206.55 421.52 208.03 422.73 208.53 426.65 209.63 429.03 210.60 432.71 211.60 435.96 211.68 438.86 212.87 441.01 212.59 443.99 213.18 446.48 214.20 447.74 216.24 449.97 218.19 452.49 218.82 454.65 220.20 457.81 221.19 459.90 222.84
M 339.45 173.95 344.22 176.60 346.83 177.83 348.99 179.21 351.47 180.53 354.11 181.47 356.11 182.56 358.85 184.39 361.73 185.75 368.15 189.24 373.89 190.66 376.41 192.24 378.25 194.04 381.10 195.35 383.37 196.83 387.64 198.54 389.62 200.17 393.90 202.87 399.34 205.70
M 339.50 177.02 344.16 180.27 348.84 182.91 351.34 184.03 353.61 185.76 355.51 187.55 357.74 189.00 364.79 192.25 366.62 193.48 372.31 195.59 374.72 197.44 377.30 199.09 379.71 201.51 381.51 202.43 385.80 205.04 387.82 205.82 388.85 207.11 390.91 208.22 396.46 212.68 399.41 214.74 401.96 215.74 408.19 217.25 412.41 220.23 414.98 222.50 416.56 223.97 418.37 226.58
M 321.91 185.61 318.64 189.58 317.07 192.74 317.72 193.17
M 63.76 125.92 66.43 124.73 73.12 122.46 77.86 121.43 90.61 117.65 98.57 116.38 106.26 114.68 122.98 111.66 131.28 109.96 139.29 108.60 154.73 107.02 166.35 105.06 172.90 104.54 175.53 109.61 177.14 114.75 178.60 119.89 180.84 130.23 182.20 135.38 183.00 140.57 183.54 145.77 182.93 151.05 183.15 156.27 184.54 161.42 185.64 166.59 183.91 182.41 182.05 193.00 181.46 198.28 179.07 203.65 162.92 203.13 150.80 202.09 139.98 200.11 130.26 197.44 120.79 194.39 112.60 190.37 98.05 180.89
M 97.15 180.30 90.65 176.09 84.93 170.81 80.75 164.60 77.00 158.66 70.61 146.67 67.93 140.98 65.71 135.08
M 63.76 125.93 63.76 125.92
M 153.88 129.60 154.13 134.08 152.92 138.41 152.11 142.41 152.07 149.52 151.02 152.74 150.48 155.81 151.33 162.49 152.42 166.29 154.14 170.54 154.52 175.35 135.38 176.47 127.50 176.22 119.83 175.17 111.93 173.52 104.92 170.64 98.29 166.51
M 96.22 178.92 92.70 173.87 88.82 168.70 82.94 159.91 78.91 154.76 71.41 144.00 64.56 133.30 62.16 129.91 61.54 127.87 62.71 126.12 64.89 125.73 66.52 127.06 68.75 130.83 75.96 143.96 81.55 153.26 85.19 158.55 90.51 167.87 92.93 171.47 98.43 180.65
M 96.47 180.32 90.48 176.14 84.76 172.65 79.62 169.11 74.36 166.03 65.14 159.66 50.63 150.82 38.29 142.56 37.18 140.86 37.77 138.85 39.79 138.02 41.75 138.91 46.93 142.50 57.21 150.35 65.88 156.36 74.70 163.14 79.82 166.72 86.47 171.79 91.94 175.63 98.31 180.52
M 110.95 142.68 108.05 138.61 106.62 133.81 106.83 128.81 108.64 124.15 111.88 120.33 116.18 117.77 121.07 116.74 126.04 117.36 130.53 119.56 134.07 123.10 136.27 127.59 136.89 132.56 135.86 137.46 133.30 141.76 129.48 144.99 124.82 146.81 119.82 147.01 115.03 145.59 110.95 142.68
M 131.60 124.87 133.36 128.46 133.85 132.43 133.03 136.35 130.98 139.79 127.93 142.38 124.20 143.83 120.20 144.00 116.36 142.86 113.10 140.53
M 116.76 135.59 115.59 133.96 115.02 132.04 115.11 130.04 115.83 128.17 117.13 126.65 118.85 125.62 120.81 125.21 122.79 125.46 124.59 126.34 126.00 127.75 126.88 129.55 127.13 131.54 126.72 133.50 125.70 135.22 124.17 136.51 122.30 137.24 120.30 137.32 118.39 136.75 116.76 135.59
M 116.39 134.04 119.39 137.05
M 115.62 130.96 121.92 137.25
M 119.50 132.51 123.69 136.70
M 118.10 128.79 125.06 135.75
M 121.14 129.51 126.13 134.50
M 119.79 125.84 126.85 132.90
M 122.54 126.27 127.03 130.76
M 79.57 162.72 82.31 165.47
M 72.79 150.79 77.41 155.41
M 67.79 140.63 72.04 144.88
M 67.11 124.48 71.43 128.80
M 70.94 123.15 74.34 126.55
M 75.00 122.05 78.58 125.63
M 79.15 121.04 82.31 124.20
M 83.11 119.84 86.69 123.43
M 87.09 118.67 90.02 121.60
M 91.14 117.56 94.68 121.10
M 95.59 116.85 99.48 120.75
M 99.97 116.07 104.55 120.66
M 104.19 115.14 107.04 117.98
M 108.48 114.27 112.57 118.36
M 112.83 113.46 115.63 116.26
M 117.20 112.68 120.33 115.80
M 121.59 111.90 125.80 116.12
M 125.90 111.06 130.37 115.53
M 130.19 110.19 135.27 115.27
M 134.56 109.41 138.54 113.38
M 138.97 108.66 143.82 113.51
M 143.64 108.17 148.69 113.22
M 148.33 107.70 152.12 111.49
M 152.99 107.21 157.37 111.58
M 157.46 106.52 161.01 110.07
M 161.85 105.75 164.70 108.60
M 166.33 105.07 170.85 109.59
M 171.05 104.64 174.26 107.84
M 138.99 123.25 138.34 122.73 138.20 122.42 138.09 120.98 138.35 120.04
M 148.08 164.28 148.94 165.36 150.08 166.05 152.44 166.23 154.97 166.96 156.81 167.70
M 149.46 107.58 148.76 108.75 147.01 109.84 146.46 110.51
M 170.84 189.21 171.05 190.52 170.98 191.19 170.70 192.91 170.26 194.26 166.57 199.94
M 116.55 162.75 117.18 160.07 117.38 158.61 117.29 158.14 115.27 155.72 115.10 155.25
M 183.89 158.98 182.80 160.23 181.07 161.74 180.31 161.98 180.07 161.85 179.95 161.46
M 90.28 126.09 90.07 124.63 88.60 122.26 87.66 121.75 86.32 121.95
M 168.31 165.03 167.11 163.23 166.56 161.54 166.42 160.42 166.81 158.03 166.78 157.34
M 140.14 136.00 139.28 136.42 139.03 136.69 138.74 137.47 138.69 138.77 139.39 141.05 141.49 143.96
M 104.21 148.41 103.81 147.71 102.22 146.46 101.41 145.43 100.92 145.07 100.32 144.97
M 120.86 170.81 123.51 173.46 125.97 174.80 126.21 175.41
M 118.52 146.63 118.14 147.89 118.06 149.25
M 128.64 178.50 128.36 180.66 128.65 182.19 129.29 184.23
M 181.91 160.35 181.05 161.21 180.73 161.33 180.25 161.29 179.79 160.67
M 152.56 179.93 151.56 178.84 149.70 178.01 149.19 178.06 148.24 178.75
M 178.90 197.52 178.88 198.95 179.89 201.80
M 80.85 120.53 81.60 121.42 82.31 123.06
M 168.46 176.32 167.98 175.86 167.72 175.36 167.45 173.87 167.91 172.21 168.55 171.40
M 134.60 152.05 132.20 149.92 128.91 148.37 127.19 147.18 126.44 146.88
M 159.93 128.08 159.03 127.26 158.34 126.97 155.59 126.47 154.99 126.15 152.92 123.64 151.61 122.66
M 99.92 132.58 101.18 132.02 104.62 129.86 107.04 126.81
M 105.02 131.00 106.33 130.50 106.77 130.18
M 96.39 118.50 96.15 120.39 95.44 123.14 94.70 124.33 93.93 124.71
M 115.83 169.29 118.23 168.22 119.02 168.04 120.52 168.13 121.22 168.48 121.87 169.12 123.18 172.10 123.85 172.93 125.22 174.17
M 85.29 149.76 86.90 150.00 90.00 149.20 91.18 149.11 92.06 149.49 92.82 150.19
M 173.35 184.70 172.59 185.87 170.86 187.85 170.77 188.74 171.02 189.89 170.98 191.26
M 146.88 150.28 147.57 148.81 148.43 146.28 149.60 142.65 149.68 141.79 149.16 140.19 148.54 139.57 146.97 138.50
M 140.33 144.65 141.00 146.61 140.84 147.74 140.27 148.61 139.91 148.90 138.88 149.54 138.03 149.84
M 85.89 146.83 87.09 146.63
M 160.28 130.52 158.52 128.16 157.12 127.55 155.41 127.23 153.97 126.22
M 106.24 145.55 105.75 144.90 104.35 141.93 103.61 140.80 102.06 139.87 101.58 139.85 101.02 140.14
M 115.39 180.41 116.38 181.36 116.46 181.83 116.22 182.23
M 152.57 186.45 152.74 187.27 153.11 187.66 153.44 187.76 153.92 187.59 155.80 186.27
M 147.52 196.05 146.20 196.32 144.25 197.21 143.68 197.31 142.08 196.32 141.28 195.59
M 165.21 127.20 167.17 127.93 169.49 128.37 170.90 127.95 172.16 127.09 172.62 126.56
M 95.91 145.91 95.58 146.67 95.36 148.15 96.06 150.36 96.62 151.15 98.01 152.40 98.65 152.67 99.57 152.69
M 177.23 156.93 175.98 155.19 175.64 154.95 175.45 155.03
M 133.96 162.38 134.33 162.08 134.74 160.86
M 160.57 160.29 160.01 160.01 159.28 160.10 157.59 160.67 156.31 161.30 155.39 162.03 154.94 162.99 154.82 163.72
M 121.21 115.21 121.83 114.86 122.06 114.29 121.77 111.87
M 68.07 125.24 65.37 125.16
M 142.08 165.51 141.88 164.77 141.93 164.24 143.30 163.36
M 169.39 167.08 167.71 165.11 166.81 163.39
M 123.31 146.87 120.66 148.45 118.62 150.13 117.68 150.39
M 173.96 134.30 174.60 133.75 175.68 132.29 175.79 131.42 175.41 129.91 175.66 128.92
M 183.62 157.99 181.33 160.91 180.66 161.28 180.32 161.27 180.08 161.07
M 109.73 150.15 109.54 149.19 109.05 148.04 108.70 147.57 105.88 145.30 104.02 141.63
M 122.47 146.91 120.41 148.15 118.55 150.08 117.64 150.37 116.96 150.28
M 118.78 191.51 117.43 190.55 115.61 188.77 111.67 185.80 111.16 185.16 111.06 184.38
M 97.62 123.51 96.53 124.83 94.52 125.68 93.60 125.49 91.48 124.12
M 89.99 124.76 88.85 122.61 88.26 121.98 87.33 121.75 85.47 122.29
M 178.63 169.45 177.44 171.67 177.06 172.01 176.66 172.16 174.04 172.26 173.29 172.47
M 110.25 187.85 109.92 187.91
M 117.88 146.44 117.67 149.64 117.33 150.04 116.76 149.86
M 115.61 186.08 112.98 184.54 111.99 183.64 111.93 183.23 112.14 182.79 112.53 182.49 112.97 182.39
M 119.96 162.40 121.14 159.90 121.24 159.16 121.13 157.28 121.04 156.77 120.62 155.99 119.99 155.61 118.85 155.39
M 169.38 109.31 167.40 109.71 166.76 109.44 165.59 108.40
M 174.90 178.53 174.32 177.34 172.75 175.75 171.29 174.89 169.16 174.43 168.20 173.54
M 153.82 122.49 152.28 121.36 150.93 120.68 150.25 120.08 148.05 117.71 144.15 113.93
M 138.28 158.20 139.65 156.92 141.38 156.32 141.79 155.55
M 99.88 140.07 98.73 141.70 95.94 147.61
M 157.55 106.77 157.63 106.49
M 93.11 158.63 87.52 160.23 86.30 160.40
M 83.98 161.40 83.56 161.98 83.49 162.75
M 135.44 148.31 133.30 147.25 132.58 146.74 132.12 146.12 131.83 145.46 131.75 144.71 132.31 142.59
M 169.27 198.77 169.02 199.63 168.97 200.66 169.14 201.59 169.83 202.64 171.05 203.39
M 135.16 145.66 134.92 144.91 135.03 142.34 135.32 141.55
M 160.78 146.35 161.94 146.39 163.15 146.75 164.40 147.62 167.51 149.29
M 97.23 147.93 96.97 148.99 96.95 149.94 97.62 151.15 98.44 151.88 99.41 152.30 100.10 152.23 100.57 151.98
M 153.46 186.51 154.45 186.22 155.42 185.57 157.64 183.24 158.54 181.25 158.83 179.11
M 183.54 175.76 184.56 176.01
M 133.79 143.77 134.50 142.05 135.21 141.46 135.81 141.41
M 145.62 193.84 144.54 194.13 143.32 193.63 142.16 192.42 140.85 191.47 139.82 189.93
M 161.66 141.57 164.23 140.30 164.50 140.37 164.74 140.67
M 164.10 157.13 161.92 157.00 158.62 155.23
M 183.90 178.33 184.30 178.31
M 168.14 194.72 167.50 195.60 165.51 197.48 163.93 199.40 163.58 200.96 163.79 201.70 164.15 202.26 165.31 203.20
M 123.72 165.25 125.40 163.67 125.83 163.17 126.11 162.47 125.82 159.60 125.44 158.12 123.94 155.21
M 181.10 170.85 179.81 171.87 178.88 173.07 177.58 173.89 176.08 173.89 173.97 173.19 172.42 173.41
M 120.35 159.49 120.07 157.82 119.65 157.13 119.11 156.66 117.30 156.19
M 153.99 108.83 154.71 107.89 155.10 106.95
M 183.59 168.60 181.56 169.21 180.09 169.91 179.02 170.91 177.83 172.70 177.28 173.03 176.03 173.24 174.70 172.86
M 159.57 192.72 159.31 192.48 159.29 192.12 159.49 191.87 159.85 191.87
M 164.22 181.37 164.20 179.10 163.94 177.04 164.55 174.24
M 135.49 198.88 135.07 197.50 135.02 196.11 134.77 195.06 134.55 192.80
M 96.87 151.23 98.35 152.46 99.40 152.65 100.61 152.08 101.08 151.25
M 83.12 130.71 81.43 132.16 78.53 132.95 77.42 132.90
M 163.99 128.45 164.96 129.08 166.08 130.29 166.04 130.96 164.79 131.75
M 149.49 191.79 145.64 193.99 144.52 194.34 143.12 194.03 141.97 192.68
M 106.89 151.76 105.03 147.97 103.21 146.08
M 98.75 181.66 97.09 183.38 96.44 184.30 95.96 185.29 95.41 187.59 94.55 193.91 94.07 199.07 93.54 201.69 92.49 205.36 92.36 206.55 92.43 207.76 93.10 211.59 93.10 212.94 92.89 214.27 92.47 215.54 91.26 217.87 89.79 220.02 86.55 224.03 85.12 226.18 86.49 223.99 90.20 218.73 91.41 216.49 92.20 214.12 92.27 211.67 91.39 207.92 91.24 206.56 91.32 205.18 92.19 201.36 92.54 198.90 92.83 192.46 93.46 185.93 93.79 184.53 94.36 183.17 95.13 181.93 96.93 179.84
M 50.14 150.48 55.60 155.48 64.03 162.42 72.68 168.77 81.75 174.64 91.29 179.96 95.18 181.86
M 97.46 182.96 112.56 190.34
M 69.62 166.21 69.58 166.49
M 173.46 104.05 180.54 111.13
M 177.31 101.03 186.20 109.91
M 181.31 98.15 189.46 106.30
M 185.45 95.41 193.32 103.28
M 189.74 92.82 197.78 100.86
M 194.03 90.24 202.86 99.06
M 198.37 87.69 205.56 94.89
M 203.04 85.49 208.62 91.07
M 207.80 83.38 215.23 90.80
M 212.65 81.35 222.09 90.79
M 217.61 79.43 224.36 86.18
M 222.83 77.78 231.96 86.91
M 228.55 76.62 235.55 83.62
M 235.09 76.28 242.27 83.46
M 241.98 76.29 248.86 83.17
M 248.71 76.15 255.91 83.35
M 255.11 75.67 261.43 81.99
M 262.22 75.91 271.01 84.69
M 274.13 80.94 279.31 86.12
M 290.65 90.58 300.43 100.36
M 331.97 125.02 335.67 128.72
M 192.76 209.59 196.11 216.27
M 191.90 201.84 200.43 218.90
M 192.56 197.16 204.67 221.36
M 192.43 190.87 208.44 222.89
M 192.29 184.57 212.23 224.46
M 192.15 178.27 216.06 226.09
M 195.12 178.21 218.14 224.24
M 198.90 179.74 217.99 217.92
M 202.15 180.23 217.84 211.61
M 206.81 183.53 216.93 203.77
M 192.18 148.25 193.72 151.33
M 210.70 185.29 216.01 195.92
M 192.80 143.48 196.61 151.10
M 214.85 187.58 215.10 188.07
M 194.19 140.24 199.44 150.74
M 237.25 226.35 238.95 229.75
M 194.81 135.47 201.96 149.75
M 237.10 220.04 241.94 229.72
M 194.69 129.20 204.42 148.66
M 236.98 213.78 244.94 229.71
M 195.41 124.63 206.88 147.55
M 236.93 207.67 247.95 229.70
M 194.60 116.98 210.05 147.89
M 236.89 201.56 250.81 229.41
M 193.04 107.84 212.70 147.16
M 236.86 195.49 253.65 229.08
M 193.81 103.37 215.21 146.18
M 239.03 193.82 256.41 228.56
M 193.82 97.36 215.34 140.42
M 242.44 194.60 256.09 221.92
M 193.82 91.36 216.12 135.96
M 245.81 195.34 255.33 214.38
M 194.66 87.01 216.57 130.84
M 248.37 194.43 255.01 207.72
M 195.69 83.07 217.61 126.89
M 251.04 193.77 255.28 202.24
M 196.48 78.63 218.39 122.45
M 253.67 193.01 255.30 196.26
M 196.86 73.37 219.54 118.73
M 196.84 67.30 220.29 114.21
M 198.81 65.22 220.72 109.05
M 200.91 63.42 220.52 102.63
M 238.97 139.54 239.87 141.34
M 278.82 219.23 279.07 219.74
M 202.95 61.47 220.25 96.07
M 240.24 136.05 242.71 140.99
M 277.91 211.40 281.47 218.52
M 204.85 59.25 220.61 90.78
M 240.60 130.76 246.67 142.90
M 278.27 206.11 283.85 217.26
M 206.57 56.68 216.95 77.44
M 241.55 126.65 250.83 145.21
M 277.69 198.92 286.23 216.01
M 208.11 53.75 215.42 68.36
M 241.56 120.64 255.00 147.53
M 277.69 192.91 288.51 214.55
M 209.48 50.46 215.24 61.99
M 242.15 115.82 258.63 148.77
M 278.52 188.55 290.79 213.09
M 211.70 48.89 215.16 55.81
M 242.07 109.63 260.52 146.54
M 280.62 186.73 293.05 211.59
M 214.08 47.64 214.47 48.41
M 242.15 103.76 261.37 142.21
M 282.86 185.20 295.25 209.97
M 240.64 94.75 262.17 137.80
M 284.71 182.87 297.45 208.35
M 239.85 87.14 262.91 133.27
M 283.39 174.22 299.67 206.77
M 238.97 79.35 263.57 128.56
M 281.25 163.93 299.71 200.84
M 238.75 72.91 264.13 123.66
M 280.27 155.95 299.50 194.39
M 238.44 66.27 263.82 117.02
M 280.73 150.85 299.95 189.29
M 236.51 56.38 264.19 111.74
M 281.87 147.11 300.32 184.02
M 236.05 49.46 263.73 104.81
M 282.95 143.26 301.41 180.16
M 234.88 41.10 264.10 99.54
M 284.09 139.52 301.78 174.88
M 234.96 35.24 263.79 92.90
M 285.32 135.96 302.24 169.79
M 238.27 35.83 264.02 87.34
M 287.09 133.48 302.47 164.23
M 241.30 35.87 264.75 82.77
M 287.81 128.91 302.42 158.12
M 244.13 35.53 264.51 76.28
M 289.11 125.49 302.95 153.17
M 246.84 34.93 264.91 71.07
M 289.52 120.28 304.12 149.50
M 249.73 34.70 264.73 64.68
M 290.10 115.43 305.48 146.18
M 323.93 183.09 325.58 186.39
M 252.61 34.43 264.52 58.26
M 291.43 112.08 306.81 142.84
M 324.50 178.20 327.70 184.61
M 255.40 34.00 264.25 51.69
M 291.16 105.51 307.30 137.80
M 324.99 173.17 329.81 182.82
M 258.07 33.33 263.84 44.86
M 288.45 94.07 308.44 134.05
M 325.35 167.88 331.93 181.03
M 260.58 32.31 264.04 39.23
M 287.10 85.37 310.17 131.50
M 326.31 163.79 334.04 179.24
M 262.94 31.03 264.09 33.33
M 287.16 79.46 311.00 127.13
M 327.14 159.43 336.15 177.45
M 287.11 73.35 299.01 97.15
M 299.16 97.45 312.62 124.36
M 327.99 155.11 336.62 172.36
M 287.94 68.99 300.03 93.18
M 304.42 101.95 313.26 119.63
M 328.64 150.38 336.62 166.34
M 286.32 59.73 301.23 89.55
M 309.73 106.56 313.96 115.01
M 330.11 147.31 336.62 160.33
M 284.64 50.35 302.61 86.29
M 330.82 142.72 336.62 154.31
M 284.33 43.72 304.15 83.36
M 332.26 139.57 336.62 148.29
M 284.61 38.26 305.82 80.68
M 333.55 136.14 336.62 142.27
M 285.50 34.02 307.57 78.17
M 334.64 132.31 336.62 136.26
M 288.20 33.41 306.63 70.26
M 335.23 127.47 336.62 130.24
M 291.23 33.44 305.51 62.00
M 305.68 56.32 306.06 57.09" fill="none" stroke="#083f3a" stroke-opacity="0.72" stroke-width="1.2" stroke-linecap="round" stroke-linejoin="round" vector-effect="non-scaling-stroke"/>
</svg>
